<?xml version="1.0" standalone="no"?>
<!DOCTYPE svg PUBLIC "-//W3C//DTD SVG 20010904//EN"
 "http://www.w3.org/TR/2001/REC-SVG-20010904/DTD/svg10.dtd">
<svg version="1.0" xmlns="http://www.w3.org/2000/svg"
 width="700.000000pt" height="700.000000pt" viewBox="0 0 700.000000 700.000000"
 preserveAspectRatio="xMidYMid meet">
<metadata>
Created by potrace 1.11, written by Peter Selinger 2001-2013
</metadata>
<g transform="translate(0.000000,700.000000) scale(0.100000,-0.100000)"
fill="#000000" stroke="none">
<path d="M4155 6990 c-87 -13 -108 -17 -175 -34 -377 -97 -668 -348 -854 -736
-81 -170 -148 -398 -171 -580 -4 -30 -9 -64 -11 -75 -10 -48 -18 -233 -18
-385 0 -240 10 -342 59 -589 12 -61 60 -215 96 -306 130 -327 331 -587 623
-806 66 -50 126 -94 134 -98 12 -7 -4 -45 -83 -202 -103 -205 -273 -512 -287
-517 -4 -2 -8 -8 -8 -14 0 -16 -165 -262 -273 -408 -269 -362 -495 -578 -722
-690 -123 -62 -205 -83 -315 -83 -281 1 -494 250 -615 722 -29 112 -30 119
-39 176 -4 20 -8 40 -10 44 -2 3 -7 31 -11 61 -4 30 -8 57 -10 60 -2 3 -6 30
-9 60 -4 30 -9 66 -11 80 -2 14 -7 50 -10 80 -4 30 -8 69 -10 85 -2 17 -6 68
-10 115 -3 47 -8 105 -10 130 -25 321 -26 1090 -1 1460 2 25 7 90 10 145 4 55
9 120 11 145 2 25 6 79 10 120 3 41 8 91 10 110 2 19 7 59 10 88 10 98 16 156
30 272 7 65 43 342 50 385 3 17 7 41 9 55 2 14 7 48 10 75 3 28 8 61 11 75 17
101 35 213 40 255 4 28 9 61 11 75 9 46 5 185 -6 233 -33 150 -133 246 -300
288 -81 20 -318 17 -399 -5 -235 -64 -322 -206 -405 -656 -13 -74 -27 -153
-30 -175 -4 -23 -9 -52 -11 -65 -3 -14 -8 -45 -11 -70 -3 -25 -7 -56 -9 -70
-2 -14 -6 -45 -10 -70 -3 -25 -10 -76 -15 -115 -5 -38 -12 -95 -15 -125 -3
-30 -8 -71 -10 -90 -2 -19 -7 -69 -10 -110 -4 -41 -8 -86 -10 -100 -2 -14 -7
-68 -10 -120 -3 -52 -8 -111 -10 -130 -2 -19 -7 -89 -11 -155 -30 -546 -34
-1203 -10 -1615 8 -124 17 -257 21 -285 2 -16 6 -61 10 -100 4 -38 8 -81 10
-95 2 -14 6 -48 10 -75 22 -176 33 -250 49 -331 2 -12 7 -39 10 -59 9 -54 65
-314 76 -350 6 -16 24 -79 41 -140 17 -60 35 -119 39 -130 4 -11 18 -49 30
-85 12 -36 26 -74 31 -85 4 -11 20 -49 35 -85 64 -158 160 -331 248 -449 193
-260 461 -431 731 -467 28 -3 59 -8 70 -11 22 -5 223 -4 270 1 345 39 643 159
973 393 225 159 511 433 747 713 240 285 450 583 647 920 126 215 298 545 298
570 0 8 8 10 23 7 52 -13 247 -46 312 -52 39 -4 79 -9 89 -11 18 -3 101 -10
256 -20 100 -6 394 -6 459 1 102 10 198 48 256 102 65 60 125 156 145 233 20
76 23 93 23 166 0 86 -28 149 -87 200 -56 48 -123 67 -246 70 -193 5 -470 15
-487 19 -10 1 -56 6 -103 10 -47 3 -98 9 -115 11 -16 3 -48 7 -70 9 -55 6
-119 16 -127 21 -4 3 13 62 38 131 110 313 225 750 264 1008 6 39 13 81 15 95
2 14 9 66 15 115 6 50 13 101 16 115 16 103 23 487 11 630 -23 269 -87 469
-213 661 -156 237 -363 376 -634 424 -55 10 -310 13 -365 5z m112 -887 c80
-49 146 -170 168 -308 21 -122 25 -340 11 -475 -10 -100 -17 -155 -22 -185 -3
-16 -7 -41 -9 -55 -7 -44 -43 -223 -58 -290 -51 -217 -185 -650 -202 -650 -18
0 -152 128 -201 191 -185 240 -268 525 -267 909 1 295 45 509 137 674 62 112
161 198 251 219 11 2 48 3 83 2 49 -3 74 -9 109 -32z"/>
</g>
</svg>
