<?xml version="1.0" encoding="UTF-8" standalone="no"?>
<svg
   xmlns:dc="http://purl.org/dc/elements/1.1/"
   xmlns:cc="http://creativecommons.org/ns#"
   xmlns:rdf="http://www.w3.org/1999/02/22-rdf-syntax-ns#"
   xmlns:svg="http://www.w3.org/2000/svg"
   xmlns="http://www.w3.org/2000/svg"
   xmlns:sodipodi="http://sodipodi.sourceforge.net/DTD/sodipodi-0.dtd"
   xmlns:inkscape="http://www.inkscape.org/namespaces/inkscape"
   viewBox="0 0 104.3145 25.977325"
   id="svg2"
   version="1.1"
   inkscape:version="0.91 r13725"
   sodipodi:docname="logo.svg"
   width="29.439869mm"
   height="7.3313785mm">
  <metadata
     id="metadata29">
    <rdf:RDF>
      <cc:Work
         rdf:about="">
        <dc:format>image/svg+xml</dc:format>
        <dc:type
           rdf:resource="http://purl.org/dc/dcmitype/StillImage" />
        <dc:title>Logo</dc:title>
      </cc:Work>
    </rdf:RDF>
  </metadata>
  <sodipodi:namedview
     pagecolor="#ffffff"
     bordercolor="#666666"
     borderopacity="1"
     objecttolerance="10"
     gridtolerance="10"
     guidetolerance="10"
     inkscape:pageopacity="0"
     inkscape:pageshadow="2"
     inkscape:window-width="1611"
     inkscape:window-height="968"
     id="namedview27"
     showgrid="false"
     inkscape:zoom="5.6880734"
     inkscape:cx="69.362896"
     inkscape:cy="9.390901"
     inkscape:window-x="0"
     inkscape:window-y="0"
     inkscape:window-maximized="0"
     inkscape:current-layer="text4157"
     units="mm"
     fit-margin-top="1"
     fit-margin-left="1"
     fit-margin-right="1"
     fit-margin-bottom="1" />
  <title
     id="title4">Logo</title>
  <defs
     id="defs20">
    <path
       id="b"
       d="M 22.735,23.171 C 23.018,23.494 22.788,24 22.359,24 l -5.907,0 c -0.285,0 -0.556,-0.121 -0.745,-0.333 l -9.414,-10.526 0,10.36 c 0,0.276 -0.224,0.5 -0.5,0.5 l -5.293,0 c -0.276,0 -0.5,-0.224 -0.5,-0.5 l 0,-23 c 0,-0.276 0.224,-0.5 0.5,-0.5 l 5.293,0 c 0.276,0 0.5,0.224 0.5,0.5 l 0,9.815 9.141,-9.99 c 0.19,-0.207 0.457,-0.325 0.738,-0.325 l 5.762,0 c 0.437,0 0.664,0.521 0.366,0.841 l -9.851,10.563 10.287,11.767 z"
       inkscape:connector-curvature="0" />
    <path
       id="c"
       d="m 45.991,24 c -0.199,0 -0.38,-0.118 -0.459,-0.301 l -2.024,-4.669 -10.67,0 -2.024,4.669 C 30.735,23.882 30.555,24 30.355,24 l -5.212,0 c -0.366,0 -0.608,-0.381 -0.453,-0.712 l 10.782,-23 C 35.554,0.112 35.731,0 35.925,0 l 4.358,0 c 0.194,0 0.37,0.112 0.453,0.287 l 10.815,23 C 51.707,23.619 51.465,24 51.099,24 l -5.108,0 z m -11.135,-9.668 6.635,0 -3.317,-7.694 -3.317,7.694 z"
       inkscape:connector-curvature="0" />
    <path
       id="d"
       d="m 55.525,24 c -0.276,0 -0.5,-0.224 -0.5,-0.5 l 0,-23 c 0,-0.276 0.224,-0.5 0.5,-0.5 l 5.293,0 c 0.276,0 0.5,0.224 0.5,0.5 l 0,18.428 9.759,0 c 0.276,0 0.5,0.224 0.5,0.5 l 0,4.072 c 0,0.276 -0.224,0.5 -0.5,0.5 l -15.552,0 z"
       inkscape:connector-curvature="0" />
    <path
       id="e"
       d="m 75.279,0.5 c 0,-0.276 0.224,-0.5 0.5,-0.5 l 9.315,0 c 2.667,0 4.959,0.477 6.874,1.43 1.938,0.953 3.42,2.338 4.446,4.153 1.026,1.793 1.539,3.926 1.539,6.4 0,2.496 -0.513,4.652 -1.539,6.468 -1.003,1.793 -2.474,3.166 -4.412,4.119 C 90.087,23.523 87.784,24 85.094,24 l -9.315,0 c -0.276,0 -0.5,-0.224 -0.5,-0.5 l 0,-23 z m 9.37,18.462 c 2.371,0 4.138,-0.579 5.301,-1.736 1.163,-1.157 1.744,-2.905 1.744,-5.242 C 91.694,9.646 91.113,7.91 89.95,6.775 88.787,5.618 87.02,5.039 84.649,5.039 l -3.078,0 0,13.923 3.078,0 z"
       inkscape:connector-curvature="0" />
    <path
       id="f"
       d="m 102.913,24 c -0.276,0 -0.5,-0.224 -0.5,-0.5 l 0,-23 c 0,-0.276 0.224,-0.5 0.5,-0.5 l 5.293,0 c 0.276,0 0.5,0.224 0.5,0.5 l 0,23 c 0,0.276 -0.224,0.5 -0.5,0.5 l -5.293,0 z"
       inkscape:connector-curvature="0" />
  </defs>
  <g
     style="font-style:normal;font-weight:normal;font-size:24.7814827px;line-height:125%;font-family:sans-serif;letter-spacing:0px;word-spacing:0px;fill:#00a6a8;fill-opacity:1;stroke:none;stroke-width:1px;stroke-linecap:butt;stroke-linejoin:miter;stroke-opacity:1"
     id="text4157"
     transform="translate(-13.441942,1.2532873)">
    <g
       style="font-style:normal;font-variant:normal;font-weight:normal;font-stretch:normal;font-size:20.66573715px;line-height:125%;font-family:Pacifico;-inkscape-font-specification:Pacifico;letter-spacing:0px;word-spacing:0px;fill:#00a6a8;fill-opacity:1;stroke:none;stroke-width:1px;stroke-linecap:butt;stroke-linejoin:miter;stroke-opacity:1"
       id="text4145">
      <path
         d="m 29.485658,12.241686 q 0.475312,0 0.681969,0.206658 0.227323,0.206657 0.227323,0.537309 0,0.537309 -0.330652,0.950624 -0.309986,0.413315 -0.991955,0.43398 -1.653259,0.04133 -2.934535,-0.247989 -1.467267,3.079195 -3.554507,5.125103 -2.066573,2.025243 -4.153813,2.025243 -2.149236,0 -3.203189,-2.500555 -1.053953,-2.500554 -1.053953,-6.757696 0,-3.6371695 0.516644,-6.5303727 0.185991,-1.0746183 0.516643,-1.4466016 0.351318,-0.392649 1.177947,-0.392649 1.363939,0 1.363939,1.177947 0,0.1239945 -0.04133,0.4546463 -0.619972,3.7198326 -0.619972,6.73703 0,3.161858 0.516644,4.815117 0.537309,1.632593 1.591262,1.632593 1.074618,0 2.335228,-1.487933 1.26061,-1.487933 2.314562,-3.740498 -1.26061,-0.785298 -1.901247,-2.025242 -0.640638,-1.2606105 -0.640638,-2.8932037 0,-1.6325932 0.495977,-2.748543 0.516644,-1.1366156 1.384605,-1.6945905 0.888627,-0.5579749 1.963245,-0.5579749 1.322607,0 2.087239,0.9506239 0.785298,0.9506239 0.785298,2.6038829 0,2.3765598 -1.033287,5.1871003 1.095285,0.185991 2.500555,0.185991 z M 23.389265,8.1705362 q 0,2.0252418 1.301942,2.9965318 0.805963,-2.3145625 0.805963,-3.8231613 0,-0.867961 -0.227323,-1.26061 -0.227323,-0.4133147 -0.619972,-0.4133147 -0.557975,0 -0.909292,0.6613035 -0.351318,0.6406379 -0.351318,1.8392507 z"
         style=""
         id="path4150" />
      <path
         d="m 31.11147,10.175113 q -0.867961,0 -1.301942,-0.3926494 -0.43398,-0.4133147 -0.43398,-1.1366155 0,-0.7233008 0.557975,-1.1986127 0.578641,-0.4959777 1.425936,-0.4959777 0.764632,0 1.239944,0.3719832 0.475312,0.3719833 0.475312,1.0539526 0,0.8266295 -0.537309,1.3226072 -0.537309,0.4753123 -1.425936,0.4753123 z m -0.165326,11.097501 q -1.343273,0 -1.963245,-0.950624 -0.599306,-0.950624 -0.599306,-2.52122 0,-0.929959 0.227323,-2.37656 0.247989,-1.467267 0.619972,-2.727877 0.185991,-0.661304 0.495978,-0.909293 0.309986,-0.247989 0.991955,-0.247989 1.053953,0 1.053953,0.702635 0,0.516644 -0.392649,2.397226 -0.495978,2.273231 -0.495978,3.079195 0,0.619972 0.165326,0.950624 0.165326,0.330651 0.557975,0.330651 0.371983,0 0.929958,-0.516643 0.557975,-0.516643 1.487933,-1.632593 0.247989,-0.289321 0.557975,-0.289321 0.268654,0 0.413315,0.247989 0.165325,0.247989 0.165325,0.68197 0,0.826629 -0.392649,1.281275 -2.045908,2.500555 -3.823161,2.500555 z"
         style=""
         id="path4152" />
      <path
         d="m 41.32228,16.560825 q 0.268655,0 0.413315,0.247989 0.165326,0.247989 0.165326,0.68197 0,0.826629 -0.392649,1.281275 -0.888627,1.095284 -1.942579,1.797919 -1.033287,0.702636 -2.355894,0.702636 -1.818585,0 -2.707212,-1.653259 -0.867961,-1.653259 -0.867961,-4.277808 0,-2.52122 0.640638,-5.745075 0.661304,-3.223855 1.921914,-5.5384175 1.281275,-2.3145626 3.037863,-2.3145626 0.991955,0 1.54993,0.9299582 0.578641,0.9092924 0.578641,2.6245486 0,2.4592227 -1.363939,5.7037433 -1.363938,3.244521 -3.699167,6.427044 0.14466,0.847296 0.475312,1.219279 0.330652,0.351317 0.867961,0.351317 0.847295,0 1.487933,-0.475312 0.640638,-0.495977 1.632593,-1.673924 0.247989,-0.289321 0.557975,-0.289321 z M 38.780395,3.7893999 q -0.475312,0 -1.074619,1.7152562 -0.599306,1.7152561 -1.053952,4.2571418 -0.454646,2.5418861 -0.495978,4.8771141 1.467267,-2.417891 2.335228,-4.8357826 0.867961,-2.438557 0.867961,-4.4431335 0,-1.570596 -0.57864,-1.570596 z"
         style=""
         id="path4154" />
      <path
         d="m 48.062864,16.560825 q 0.268654,0 0.413315,0.247989 0.165325,0.247989 0.165325,0.68197 0,0.826629 -0.392649,1.281275 -0.888626,1.095284 -1.942579,1.797919 -1.033287,0.702636 -2.355894,0.702636 -1.818585,0 -2.707211,-1.653259 -0.867961,-1.653259 -0.867961,-4.277808 0,-2.52122 0.640637,-5.745075 0.661304,-3.223855 1.921914,-5.5384175 1.281276,-2.3145626 3.037863,-2.3145626 0.991956,0 1.549931,0.9299582 0.57864,0.9092924 0.57864,2.6245486 0,2.4592227 -1.363938,5.7037433 -1.363939,3.244521 -3.699167,6.427044 0.14466,0.847296 0.475312,1.219279 0.330651,0.351317 0.867961,0.351317 0.847295,0 1.487933,-0.475312 0.640638,-0.495977 1.632593,-1.673924 0.247989,-0.289321 0.557975,-0.289321 z M 45.520978,3.7893999 q -0.475312,0 -1.074618,1.7152562 -0.599307,1.7152561 -1.053953,4.2571418 -0.454646,2.5418861 -0.495977,4.8771141 1.467267,-2.417891 2.335228,-4.8357826 0.867961,-2.438557 0.867961,-4.4431335 0,-1.570596 -0.578641,-1.570596 z"
         style=""
         id="path4156" />
      <path
         d="m 49.145876,21.272614 q -1.177947,0 -1.921913,-0.929959 -0.723301,-0.929958 -0.723301,-2.438557 0,-1.653259 0.764632,-3.120526 0.764632,-1.487933 2.025242,-2.37656 1.281276,-0.909292 2.707212,-0.909292 0.454646,0 0.599306,0.185991 0.165326,0.165326 0.268655,0.619973 0.392649,-0.08266 0.867961,-0.08266 0.495977,0 0.764632,0.247988 0.268655,0.247989 0.268655,0.702636 0,0.475311 -0.206658,1.653259 -0.227323,1.260609 -0.351317,2.417891 -0.123995,1.136615 -0.123995,2.562551 0,0.785298 -0.330652,1.136616 -0.309986,0.330652 -1.033286,0.330652 -0.702635,0 -1.053953,-0.330652 -0.330652,-0.351318 -0.330652,-1.11595 l 0.02067,-0.330652 q -0.640638,1.777254 -2.211234,1.777254 z m 0.805964,-2.08724 q 0.57864,0 1.053952,-0.805964 0.475312,-0.805963 0.847296,-2.872537 l 0.392649,-2.08724 q -0.847296,0.02067 -1.570596,0.661304 -0.723301,0.619972 -1.157282,1.653259 -0.43398,1.033287 -0.43398,2.190568 0,0.619972 0.227323,0.950624 0.247989,0.309986 0.640638,0.309986 z"
         style=""
         id="path4158" />
      <path
         d="m 70.11353,21.272614 q -2.459223,0 -4.277807,-0.888627 -1.818585,-0.909293 -2.789875,-2.562552 -0.97129,-1.653259 -0.97129,-3.843827 0,-3.037863 1.136616,-5.3937571 1.157281,-2.355894 3.120526,-3.6371697 1.963245,-1.3019415 4.360471,-1.3019415 2.231899,0 3.389181,1.1572813 1.157281,1.1366155 1.157281,3.0171976 0,1.26061 -0.454646,2.0252423 -0.433981,0.7646321 -1.26061,0.7646321 -0.578641,0 -0.909293,-0.268654 -0.330651,-0.268655 -0.330651,-0.7852985 0,-0.1859916 0.08266,-0.6819693 0.123995,-0.6199721 0.123995,-0.9919554 0,-1.880582 -2.004577,-1.880582 -1.363938,0 -2.603882,0.8886266 -1.239945,0.8886267 -2.004577,2.6245487 -0.764632,1.7152559 -0.764632,4.0918159 0,2.479888 1.384604,3.843827 1.384605,1.343273 4.091816,1.343273 1.343273,0 2.707212,-0.330652 1.384604,-0.351317 3.058529,-1.053952 0.309986,-0.123995 0.516643,-0.123995 0.330652,0 0.495978,0.247989 0.165326,0.247989 0.165326,0.640638 0,1.26061 -1.363939,1.859916 -1.467267,0.640638 -3.058529,0.950624 -1.570596,0.289321 -2.996532,0.289321 z"
         style=""
         id="path4160" />
      <path
         d="m 78.493483,21.272614 q -1.281275,0 -2.045908,-0.929959 -0.764632,-0.929958 -0.764632,-2.438557 0,-1.653259 0.764632,-3.120526 0.764633,-1.487933 2.025243,-2.37656 1.281275,-0.909292 2.707211,-0.909292 0.454647,0 0.599307,0.185991 0.165326,0.165326 0.268654,0.619973 0.433981,-0.08266 0.909293,-0.08266 1.012621,0 1.012621,0.7233 0,0.433981 -0.309986,2.066574 -0.475312,2.37656 -0.475312,3.306518 0,0.309986 0.14466,0.495978 0.165326,0.185991 0.413315,0.185991 0.392649,0 0.950624,-0.495977 0.557975,-0.516644 1.508598,-1.653259 0.247989,-0.289321 0.557975,-0.289321 0.268655,0 0.413315,0.247989 0.165326,0.247989 0.165326,0.68197 0,0.826629 -0.392649,1.281275 -0.847295,1.053953 -1.797919,1.777254 -0.950624,0.723301 -1.839251,0.723301 -0.681969,0 -1.26061,-0.454647 -0.557975,-0.475312 -0.847295,-1.281275 -1.074618,1.735922 -2.707212,1.735922 z m 0.743967,-2.08724 q 0.454646,0 0.867961,-0.537309 0.413315,-0.537309 0.599306,-1.425936 l 0.764633,-3.802496 q -0.867961,0.02067 -1.611928,0.661304 -0.723301,0.619972 -1.157281,1.653259 -0.433981,1.033287 -0.433981,2.190568 0,0.640638 0.247989,0.950624 0.268655,0.309986 0.723301,0.309986 z"
         style=""
         id="path4162" />
      <path
         d="m 87.146294,21.272614 q -0.785298,0 -1.11595,-0.82663 -0.309986,-0.826629 -0.309986,-2.645214 0,-2.686546 0.764632,-5.104437 0.185992,-0.599307 0.599306,-0.867961 0.433981,-0.289321 1.198613,-0.289321 0.413315,0 0.578641,0.103329 0.165326,0.103329 0.165326,0.392649 0,0.330652 -0.309986,1.487933 -0.206658,0.82663 -0.330652,1.446602 -0.123995,0.619972 -0.206658,1.529264 0.68197,-1.777253 1.529265,-2.893203 0.847295,-1.11595 1.653259,-1.591262 0.826629,-0.475312 1.508599,-0.475312 1.343273,0 1.343273,1.343273 0,0.268655 -0.185992,1.301942 -0.165326,0.826629 -0.165326,1.033287 0,0.7233 0.516644,0.7233 0.57864,0 1.487933,-0.909292 0.268654,-0.268655 0.557975,-0.268655 0.268654,0 0.413314,0.247989 0.165326,0.227323 0.165326,0.619972 0,0.764633 -0.413315,1.198613 -0.57864,0.599306 -1.363938,1.033287 -0.764632,0.413315 -1.632593,0.413315 -1.095285,0 -1.673925,-0.557975 -0.557975,-0.557975 -0.557975,-1.508599 0,-0.309986 0.062,-0.619972 0.04133,-0.413315 0.04133,-0.557975 0,-0.330652 -0.227323,-0.330652 -0.309987,0 -0.82663,0.702635 -0.495978,0.681969 -0.991955,1.818585 -0.495978,1.136616 -0.805964,2.397226 -0.227323,0.971289 -0.537309,1.322607 -0.289321,0.330652 -0.929958,0.330652 z"
         style=""
         id="path4164" />
      <path
         d="m 97.831123,10.175113 q -0.867961,0 -1.301941,-0.3926494 -0.433981,-0.4133147 -0.433981,-1.1366155 0,-0.7233008 0.557975,-1.1986127 0.578641,-0.4959777 1.425936,-0.4959777 0.764632,0 1.239944,0.3719832 0.475312,0.3719833 0.475312,1.0539526 0,0.8266295 -0.537309,1.3226072 -0.537309,0.4753123 -1.425936,0.4753123 z m -0.165326,11.097501 q -1.343273,0 -1.963245,-0.950624 -0.599306,-0.950624 -0.599306,-2.52122 0,-0.929959 0.227323,-2.37656 0.247989,-1.467267 0.619972,-2.727877 0.185992,-0.661304 0.495978,-0.909293 0.309986,-0.247989 0.991955,-0.247989 1.053953,0 1.053953,0.702635 0,0.516644 -0.392649,2.397226 -0.495978,2.273231 -0.495978,3.079195 0,0.619972 0.165326,0.950624 0.165326,0.330651 0.557975,0.330651 0.371983,0 0.929958,-0.516643 0.557975,-0.516643 1.487931,-1.632593 0.24799,-0.289321 0.55798,-0.289321 0.26865,0 0.41331,0.247989 0.16533,0.247989 0.16533,0.68197 0,0.826629 -0.39265,1.281275 -2.045909,2.500555 -3.823163,2.500555 z"
         style=""
         id="path4166" />
      <path
         d="m 104.05345,21.72726 q -1.07462,0 -1.65326,-0.495978 -0.55798,-0.495978 -0.55798,-1.11595 0,-0.537309 0.39265,-0.929958 0.39265,-0.392649 1.15728,-0.392649 0.26866,0 0.61998,0.062 0.37198,0.04133 0.55797,0.062 -0.0207,-0.537309 -0.24799,-1.012621 -0.20666,-0.475312 -0.53731,-0.909292 -0.33065,-0.454646 -0.61997,-0.785298 -0.64064,1.219278 -1.28128,2.025242 -0.61997,0.805964 -1.36393,1.529265 -0.37199,0.371983 -0.785302,0.371983 -0.330652,0 -0.537309,-0.227323 -0.206657,-0.247989 -0.206657,-0.599307 0,-0.413314 0.28932,-0.764632 l 0.268655,-0.330652 q 1.136613,-1.40527 1.715253,-2.314562 0.35132,-0.599307 0.82663,-1.591262 0.47531,-1.012621 0.92996,-2.087239 0.39265,-0.909293 1.63259,-0.909293 0.57864,0 0.80597,0.103329 0.22732,0.103329 0.22732,0.330652 0,0.123994 -0.0827,0.392649 -0.0827,0.268654 -0.22733,0.537309 -0.37198,0.743966 -0.37198,1.26061 0,0.309986 0.20666,0.681969 0.22732,0.371983 0.68197,0.929958 0.6613,0.867961 0.99195,1.487933 0.35132,0.599307 0.35132,1.322608 0,0.206657 -0.0413,0.57864 1.01262,-0.392649 2.37656,-2.087239 0.24799,-0.289321 0.55797,-0.289321 0.26866,0 0.41332,0.247989 0.16532,0.247989 0.16532,0.68197 0,0.785298 -0.39264,1.281275 -1.03329,1.281276 -1.98392,1.756588 -0.92995,0.454646 -2.31456,0.495978 -0.82663,0.702635 -1.96324,0.702635 z"
         style=""
         id="path4168" />
      <path
         d="m 112.54158,21.272614 q -1.21928,0 -2.08724,-0.599307 -0.8473,-0.619972 -1.28128,-1.611927 -0.43398,-0.991956 -0.43398,-2.128571 0,-1.570596 0.57864,-2.789875 0.59931,-1.239944 1.61193,-1.921913 1.01262,-0.702635 2.27323,-0.702635 1.21928,0 2.08724,0.619972 0.86796,0.599306 1.30194,1.591261 0.43398,0.991956 0.43398,2.128571 0,1.570596 -0.5993,2.810541 -0.59931,1.219278 -1.6326,1.921913 -1.01262,0.68197 -2.25256,0.68197 z m 0.22732,-2.2319 q 0.70263,0 1.17795,-0.764632 0.49597,-0.764633 0.49597,-2.2319 0,-1.136616 -0.41331,-1.715256 -0.41331,-0.578641 -0.99196,-0.578641 -0.74396,0 -1.23994,0.764632 -0.47531,0.743967 -0.47531,2.2319 0,1.177947 0.41331,1.735922 0.41332,0.557975 1.03329,0.557975 z"
         style=""
         id="path4170" />
    </g>
  </g>
</svg>
