<?xml version="1.0" encoding="UTF-8" standalone="no"?>
<svg
   xmlns:dc="http://purl.org/dc/elements/1.1/"
   xmlns:cc="http://creativecommons.org/ns#"
   xmlns:rdf="http://www.w3.org/1999/02/22-rdf-syntax-ns#"
   xmlns:svg="http://www.w3.org/2000/svg"
   xmlns="http://www.w3.org/2000/svg"
   xmlns:sodipodi="http://sodipodi.sourceforge.net/DTD/sodipodi-0.dtd"
   xmlns:inkscape="http://www.inkscape.org/namespaces/inkscape"
   viewBox="0 0 78.35789 23.418501"
   id="svg2"
   version="1.1"
   inkscape:version="0.91 r13725"
   sodipodi:docname="logo.svg"
   width="22.114338mm"
   height="6.6092215mm">
  <metadata
     id="metadata29">
    <rdf:RDF>
      <cc:Work
         rdf:about="">
        <dc:format>image/svg+xml</dc:format>
        <dc:type
           rdf:resource="http://purl.org/dc/dcmitype/StillImage" />
        <dc:title>Logo</dc:title>
      </cc:Work>
    </rdf:RDF>
  </metadata>
  <sodipodi:namedview
     pagecolor="#ffffff"
     bordercolor="#666666"
     borderopacity="1"
     objecttolerance="10"
     gridtolerance="10"
     guidetolerance="10"
     inkscape:pageopacity="0"
     inkscape:pageshadow="2"
     inkscape:window-width="1258"
     inkscape:window-height="892"
     id="namedview27"
     showgrid="false"
     inkscape:zoom="5.6880734"
     inkscape:cx="34.607976"
     inkscape:cy="-2.355265"
     inkscape:window-x="0"
     inkscape:window-y="0"
     inkscape:window-maximized="0"
     inkscape:current-layer="svg2"
     units="mm"
     fit-margin-top="0"
     fit-margin-left="0"
     fit-margin-right="0"
     fit-margin-bottom="0" />
  <title
     id="title4">Logo</title>
  <defs
     id="defs20">
    <path
       id="b"
       d="M 22.735,23.171 C 23.018,23.494 22.788,24 22.359,24 l -5.907,0 c -0.285,0 -0.556,-0.121 -0.745,-0.333 l -9.414,-10.526 0,10.36 c 0,0.276 -0.224,0.5 -0.5,0.5 l -5.293,0 c -0.276,0 -0.5,-0.224 -0.5,-0.5 l 0,-23 c 0,-0.276 0.224,-0.5 0.5,-0.5 l 5.293,0 c 0.276,0 0.5,0.224 0.5,0.5 l 0,9.815 9.141,-9.99 c 0.19,-0.207 0.457,-0.325 0.738,-0.325 l 5.762,0 c 0.437,0 0.664,0.521 0.366,0.841 l -9.851,10.563 10.287,11.767 z"
       inkscape:connector-curvature="0" />
    <path
       id="c"
       d="m 45.991,24 c -0.199,0 -0.38,-0.118 -0.459,-0.301 l -2.024,-4.669 -10.67,0 -2.024,4.669 C 30.735,23.882 30.555,24 30.355,24 l -5.212,0 c -0.366,0 -0.608,-0.381 -0.453,-0.712 l 10.782,-23 C 35.554,0.112 35.731,0 35.925,0 l 4.358,0 c 0.194,0 0.37,0.112 0.453,0.287 l 10.815,23 C 51.707,23.619 51.465,24 51.099,24 l -5.108,0 z m -11.135,-9.668 6.635,0 -3.317,-7.694 -3.317,7.694 z"
       inkscape:connector-curvature="0" />
    <path
       id="d"
       d="m 55.525,24 c -0.276,0 -0.5,-0.224 -0.5,-0.5 l 0,-23 c 0,-0.276 0.224,-0.5 0.5,-0.5 l 5.293,0 c 0.276,0 0.5,0.224 0.5,0.5 l 0,18.428 9.759,0 c 0.276,0 0.5,0.224 0.5,0.5 l 0,4.072 c 0,0.276 -0.224,0.5 -0.5,0.5 l -15.552,0 z"
       inkscape:connector-curvature="0" />
    <path
       id="e"
       d="m 75.279,0.5 c 0,-0.276 0.224,-0.5 0.5,-0.5 l 9.315,0 c 2.667,0 4.959,0.477 6.874,1.43 1.938,0.953 3.42,2.338 4.446,4.153 1.026,1.793 1.539,3.926 1.539,6.4 0,2.496 -0.513,4.652 -1.539,6.468 -1.003,1.793 -2.474,3.166 -4.412,4.119 C 90.087,23.523 87.784,24 85.094,24 l -9.315,0 c -0.276,0 -0.5,-0.224 -0.5,-0.5 l 0,-23 z m 9.37,18.462 c 2.371,0 4.138,-0.579 5.301,-1.736 1.163,-1.157 1.744,-2.905 1.744,-5.242 C 91.694,9.646 91.113,7.91 89.95,6.775 88.787,5.618 87.02,5.039 84.649,5.039 l -3.078,0 0,13.923 3.078,0 z"
       inkscape:connector-curvature="0" />
    <path
       id="f"
       d="m 102.913,24 c -0.276,0 -0.5,-0.224 -0.5,-0.5 l 0,-23 c 0,-0.276 0.224,-0.5 0.5,-0.5 l 5.293,0 c 0.276,0 0.5,0.224 0.5,0.5 l 0,23 c 0,0.276 -0.224,0.5 -0.5,0.5 l -5.293,0 z"
       inkscape:connector-curvature="0" />
  </defs>
  <g
     style="font-style:normal;font-weight:normal;font-size:24.7814827px;line-height:125%;font-family:sans-serif;letter-spacing:0px;word-spacing:0px;fill:#00a6a8;fill-opacity:1;stroke:none;stroke-width:1px;stroke-linecap:butt;stroke-linejoin:miter;stroke-opacity:1"
     id="text4157"
     transform="translate(-15.321056,-0.29074867)">
    <path
       d="m 33.684135,12.879742 q 0.569974,0 0.817789,0.247815 0.272596,0.247815 0.272596,0.644318 0,0.644319 -0.396503,1.139948 -0.371723,0.49563 -1.189512,0.520412 -1.982518,0.04956 -3.51897,-0.297378 -1.759485,3.692441 -4.262415,6.145808 -2.478148,2.428585 -4.981078,2.428585 -2.577274,0 -3.84113,-2.99856 -1.263856,-2.998559 -1.263856,-8.103544 0,-4.3615414 0.619537,-7.830949 0.223034,-1.2886371 0.619537,-1.7347037 0.421286,-0.4708482 1.412545,-0.4708482 1.635578,0 1.635578,1.4125445 0,0.1486889 -0.04956,0.5451926 -0.743445,4.4606669 -0.743445,8.0787638 0,3.791566 0.619537,5.774085 0.644319,1.957737 1.908175,1.957737 1.288637,0 2.800307,-1.784267 1.511671,-1.784266 2.775526,-4.485448 -1.51167,-0.941696 -2.279896,-2.428585 -0.768226,-1.511671 -0.768226,-3.4694078 0,-1.9577372 0.594755,-3.2959372 0.619538,-1.3629816 1.66036,-2.0320816 1.065604,-0.6691 2.354241,-0.6691 1.586015,0 2.502929,1.1399482 0.941697,1.1399482 0.941697,3.1224668 0,2.8498705 -1.239074,6.2201526 1.313418,0.223033 2.998559,0.223033 z M 26.373598,7.9977898 q 0,2.4285852 1.561233,3.5933152 0.966478,-2.7755263 0.966478,-4.5845745 0,-1.0408223 -0.272596,-1.5116705 -0.272597,-0.4956296 -0.743445,-0.4956296 -0.6691,0 -1.090385,0.7930074 -0.421285,0.768226 -0.421285,2.205552 z"
       style="font-style:normal;font-variant:normal;font-weight:normal;font-stretch:normal;font-family:Pacifico;-inkscape-font-specification:Pacifico;fill:#00a6a8;fill-opacity:1"
       id="path4162"
       inkscape:connector-curvature="0" />
    <path
       d="m 35.63374,10.401594 q -1.040822,0 -1.561233,-0.4708486 -0.520411,-0.4956296 -0.520411,-1.3629815 0,-0.8673519 0.6691,-1.437326 0.693881,-0.5947556 1.709922,-0.5947556 0.916915,0 1.486889,0.4460667 0.569974,0.4460667 0.569974,1.2638556 0,0.9912593 -0.644318,1.5860149 -0.644319,0.5699745 -1.709923,0.5699745 z M 35.435489,23.70925 q -1.610797,0 -2.354241,-1.139948 -0.718663,-1.139949 -0.718663,-3.023341 0,-1.115167 0.272596,-2.849871 0.297378,-1.759485 0.743444,-3.271155 0.223034,-0.793008 0.594756,-1.090386 0.371722,-0.297378 1.189511,-0.297378 1.263856,0 1.263856,0.842571 0,0.619537 -0.470848,2.874652 -0.594756,2.725963 -0.594756,3.692441 0,0.743444 0.198252,1.139948 0.198252,0.396504 0.6691,0.396504 0.446067,0 1.115167,-0.619537 0.6691,-0.619537 1.784266,-1.957737 0.297378,-0.346941 0.6691,-0.346941 0.32216,0 0.49563,0.297378 0.198252,0.297377 0.198252,0.817788 0,0.99126 -0.470848,1.536452 -2.453367,2.99856 -4.584574,2.99856 z"
       style="font-style:normal;font-variant:normal;font-weight:normal;font-stretch:normal;font-family:Pacifico;-inkscape-font-specification:Pacifico;fill:#00a6a8;fill-opacity:1"
       id="path4164"
       inkscape:connector-curvature="0" />
    <path
       d="m 47.878116,18.059072 q 0.322159,0 0.49563,0.297378 0.198252,0.297377 0.198252,0.817788 0,0.99126 -0.470849,1.536452 -1.065603,1.313419 -2.329459,2.155989 -1.239074,0.842571 -2.825089,0.842571 -2.18077,0 -3.246374,-1.982519 -1.040822,-1.982518 -1.040822,-5.129767 0,-3.023341 0.768225,-6.8892519 0.793008,-3.8659113 2.304678,-6.6414374 1.536452,-2.77552603 3.642878,-2.77552603 1.189511,0 1.858612,1.11516673 0.693881,1.0903852 0.693881,3.1472483 0,2.9489964 -1.635578,6.8396893 -1.635578,3.890693 -4.435885,7.707041 0.17347,1.016041 0.569974,1.462108 0.396504,0.421285 1.040822,0.421285 1.016041,0 1.784267,-0.569974 0.768226,-0.594756 1.957737,-2.0073 0.297378,-0.346941 0.6691,-0.346941 z M 44.829994,2.7441155 q -0.569974,0 -1.288637,2.056863 -0.718663,2.0568631 -1.263856,5.1049855 -0.545193,3.048122 -0.594756,5.84843 1.759486,-2.899434 2.800308,-5.7988671 1.040822,-2.9242149 1.040822,-5.3280188 0,-1.8833926 -0.693881,-1.8833926 z"
       style="font-style:normal;font-variant:normal;font-weight:normal;font-stretch:normal;font-family:Pacifico;-inkscape-font-specification:Pacifico;fill:#00a6a8;fill-opacity:1"
       id="path4166"
       inkscape:connector-curvature="0" />
    <path
       d="m 55.961141,18.059072 q 0.322159,0 0.49563,0.297378 0.198252,0.297377 0.198252,0.817788 0,0.99126 -0.470849,1.536452 -1.065603,1.313419 -2.329459,2.155989 -1.239074,0.842571 -2.825089,0.842571 -2.18077,0 -3.246374,-1.982519 -1.040823,-1.982518 -1.040823,-5.129767 0,-3.023341 0.768226,-6.8892519 0.793008,-3.8659113 2.304678,-6.6414374 1.536452,-2.77552603 3.642878,-2.77552603 1.189511,0 1.858611,1.11516673 0.693882,1.0903852 0.693882,3.1472483 0,2.9489964 -1.635578,6.8396893 -1.635578,3.890693 -4.435885,7.707041 0.17347,1.016041 0.569974,1.462108 0.396504,0.421285 1.040822,0.421285 1.016041,0 1.784267,-0.569974 0.768226,-0.594756 1.957737,-2.0073 0.297378,-0.346941 0.6691,-0.346941 z M 52.913019,2.7441155 q -0.569974,0 -1.288637,2.056863 -0.718663,2.0568631 -1.263856,5.1049855 -0.545193,3.048122 -0.594756,5.84843 Q 51.525256,12.85496 52.566078,9.9555269 53.6069,7.031312 53.6069,4.6275081 q 0,-1.8833926 -0.693881,-1.8833926 z"
       style="font-style:normal;font-variant:normal;font-weight:normal;font-stretch:normal;font-family:Pacifico;-inkscape-font-specification:Pacifico;fill:#00a6a8;fill-opacity:1"
       id="path4168"
       inkscape:connector-curvature="0" />
    <path
       d="m 57.259844,23.70925 q -1.412544,0 -2.304677,-1.115167 -0.867352,-1.115167 -0.867352,-2.924215 0,-1.982518 0.916915,-3.742004 0.916914,-1.784267 2.428585,-2.84987 1.536452,-1.090385 3.246374,-1.090385 0.545193,0 0.718663,0.223033 0.198252,0.198252 0.322159,0.743444 0.470849,-0.09913 1.040823,-0.09913 0.594755,0 0.916914,0.297378 0.32216,0.297378 0.32216,0.842571 0,0.569974 -0.247815,1.982518 -0.272596,1.511671 -0.421285,2.899434 -0.148689,1.362981 -0.148689,3.072904 0,0.941696 -0.396504,1.362981 -0.371722,0.396504 -1.239074,0.396504 -0.84257,0 -1.263856,-0.396504 -0.396503,-0.421285 -0.396503,-1.3382 l 0.02478,-0.396504 q -0.768226,2.131208 -2.651619,2.131208 z m 0.966478,-2.50293 q 0.693882,0 1.263856,-0.966478 0.569974,-0.966478 1.016041,-3.444626 l 0.470848,-2.50293 q -1.016041,0.02478 -1.883393,0.793008 -0.867352,0.743444 -1.387763,1.982518 -0.520411,1.239075 -0.520411,2.626838 0,0.743444 0.272596,1.139948 0.297378,0.371722 0.768226,0.371722 z"
       style="font-style:normal;font-variant:normal;font-weight:normal;font-stretch:normal;font-family:Pacifico;-inkscape-font-specification:Pacifico;fill:#00a6a8;fill-opacity:1"
       id="path4170"
       inkscape:connector-curvature="0" />
    <path
       d="m 92.588558,12.879742 q 0.569974,0 0.817789,0.247815 0.272596,0.247815 0.272596,0.644318 0,0.644319 -0.396504,1.139948 -0.371722,0.49563 -1.189511,0.520412 -1.982518,0.04956 -3.51897,-0.297378 -1.759486,3.692441 -4.262415,6.145808 -2.478149,2.428585 -4.981078,2.428585 -2.577275,0 -3.84113,-2.99856 -1.263856,-2.998559 -1.263856,-8.103544 0,-4.3615414 0.619537,-7.830949 0.223034,-1.2886371 0.619537,-1.7347037 0.421285,-0.4708482 1.412545,-0.4708482 1.635578,0 1.635578,1.4125445 0,0.1486889 -0.04956,0.5451926 -0.743445,4.4606669 -0.743445,8.0787638 0,3.791566 0.619537,5.774085 0.644319,1.957737 1.908174,1.957737 1.288637,0 2.800308,-1.784267 1.51167,-1.784266 2.775526,-4.485448 -1.51167,-0.941696 -2.279896,-2.428585 -0.768226,-1.511671 -0.768226,-3.4694078 0,-1.9577372 0.594755,-3.2959372 0.619537,-1.3629816 1.66036,-2.0320816 1.065603,-0.6691 2.35424,-0.6691 1.586015,0 2.50293,1.1399482 0.941696,1.1399482 0.941696,3.1224668 0,2.8498705 -1.239074,6.2201526 1.313419,0.223033 2.99856,0.223033 z M 85.27802,7.9977898 q 0,2.4285852 1.561234,3.5933152 0.966478,-2.7755263 0.966478,-4.5845745 0,-1.0408223 -0.272597,-1.5116705 -0.272596,-0.4956296 -0.743444,-0.4956296 -0.6691,0 -1.090385,0.7930074 -0.421286,0.768226 -0.421286,2.205552 z"
       style="font-style:normal;font-variant:normal;font-weight:normal;font-stretch:normal;font-family:Pacifico;-inkscape-font-specification:Pacifico;fill:#00a6a8;fill-opacity:1"
       id="path4172"
       inkscape:connector-curvature="0" />
  </g>
</svg>
