<?xml version="1.0" encoding="UTF-8" standalone="no"?>
<svg
   xmlns:dc="http://purl.org/dc/elements/1.1/"
   xmlns:cc="http://creativecommons.org/ns#"
   xmlns:rdf="http://www.w3.org/1999/02/22-rdf-syntax-ns#"
   xmlns:svg="http://www.w3.org/2000/svg"
   xmlns="http://www.w3.org/2000/svg"
   xmlns:sodipodi="http://sodipodi.sourceforge.net/DTD/sodipodi-0.dtd"
   xmlns:inkscape="http://www.inkscape.org/namespaces/inkscape"
   viewBox="0 0 0 21.535123"
   id="svg2"
   version="1.1"
   inkscape:version="0.91 r13725"
   sodipodi:docname="logo-square.svg"
   width="6.0776901mm"
   height="6.0776901mm">
  <metadata
     id="metadata29">
    <rdf:RDF>
      <cc:Work
         rdf:about="">
        <dc:format>image/svg+xml</dc:format>
        <dc:type
           rdf:resource="http://purl.org/dc/dcmitype/StillImage" />
        <dc:title>Logo</dc:title>
      </cc:Work>
    </rdf:RDF>
  </metadata>
  <sodipodi:namedview
     pagecolor="#ffffff"
     bordercolor="#666666"
     borderopacity="1"
     objecttolerance="10"
     gridtolerance="10"
     guidetolerance="10"
     inkscape:pageopacity="0"
     inkscape:pageshadow="2"
     inkscape:window-width="1258"
     inkscape:window-height="892"
     id="namedview27"
     showgrid="false"
     inkscape:zoom="5.6880734"
     inkscape:cx="-12.517415"
     inkscape:cy="-2.3552649"
     inkscape:window-x="0"
     inkscape:window-y="0"
     inkscape:window-maximized="0"
     inkscape:current-layer="text4157"
     units="mm"
     fit-margin-top="0"
     fit-margin-left="0"
     fit-margin-right="0"
     fit-margin-bottom="0" />
  <title
     id="title4">Logo</title>
  <defs
     id="defs20">
    <path
       id="b"
       d="M 22.735,23.171 C 23.018,23.494 22.788,24 22.359,24 l -5.907,0 c -0.285,0 -0.556,-0.121 -0.745,-0.333 l -9.414,-10.526 0,10.36 c 0,0.276 -0.224,0.5 -0.5,0.5 l -5.293,0 c -0.276,0 -0.5,-0.224 -0.5,-0.5 l 0,-23 c 0,-0.276 0.224,-0.5 0.5,-0.5 l 5.293,0 c 0.276,0 0.5,0.224 0.5,0.5 l 0,9.815 9.141,-9.99 c 0.19,-0.207 0.457,-0.325 0.738,-0.325 l 5.762,0 c 0.437,0 0.664,0.521 0.366,0.841 l -9.851,10.563 10.287,11.767 z"
       inkscape:connector-curvature="0" />
    <path
       id="c"
       d="m 45.991,24 c -0.199,0 -0.38,-0.118 -0.459,-0.301 l -2.024,-4.669 -10.67,0 -2.024,4.669 C 30.735,23.882 30.555,24 30.355,24 l -5.212,0 c -0.366,0 -0.608,-0.381 -0.453,-0.712 l 10.782,-23 C 35.554,0.112 35.731,0 35.925,0 l 4.358,0 c 0.194,0 0.37,0.112 0.453,0.287 l 10.815,23 C 51.707,23.619 51.465,24 51.099,24 l -5.108,0 z m -11.135,-9.668 6.635,0 -3.317,-7.694 -3.317,7.694 z"
       inkscape:connector-curvature="0" />
    <path
       id="d"
       d="m 55.525,24 c -0.276,0 -0.5,-0.224 -0.5,-0.5 l 0,-23 c 0,-0.276 0.224,-0.5 0.5,-0.5 l 5.293,0 c 0.276,0 0.5,0.224 0.5,0.5 l 0,18.428 9.759,0 c 0.276,0 0.5,0.224 0.5,0.5 l 0,4.072 c 0,0.276 -0.224,0.5 -0.5,0.5 l -15.552,0 z"
       inkscape:connector-curvature="0" />
    <path
       id="e"
       d="m 75.279,0.5 c 0,-0.276 0.224,-0.5 0.5,-0.5 l 9.315,0 c 2.667,0 4.959,0.477 6.874,1.43 1.938,0.953 3.42,2.338 4.446,4.153 1.026,1.793 1.539,3.926 1.539,6.4 0,2.496 -0.513,4.652 -1.539,6.468 -1.003,1.793 -2.474,3.166 -4.412,4.119 C 90.087,23.523 87.784,24 85.094,24 l -9.315,0 c -0.276,0 -0.5,-0.224 -0.5,-0.5 l 0,-23 z m 9.37,18.462 c 2.371,0 4.138,-0.579 5.301,-1.736 1.163,-1.157 1.744,-2.905 1.744,-5.242 C 91.694,9.646 91.113,7.91 89.95,6.775 88.787,5.618 87.02,5.039 84.649,5.039 l -3.078,0 0,13.923 3.078,0 z"
       inkscape:connector-curvature="0" />
    <path
       id="f"
       d="m 102.913,24 c -0.276,0 -0.5,-0.224 -0.5,-0.5 l 0,-23 c 0,-0.276 0.224,-0.5 0.5,-0.5 l 5.293,0 c 0.276,0 0.5,0.224 0.5,0.5 l 0,23 c 0,0.276 -0.224,0.5 -0.5,0.5 l -5.293,0 z"
       inkscape:connector-curvature="0" />
  </defs>
  <g
     style="font-style:normal;font-weight:normal;font-size:24.7814827px;line-height:125%;font-family:sans-serif;letter-spacing:0px;word-spacing:0px;fill:#00a6a8;fill-opacity:1;stroke:none;stroke-width:1px;stroke-linecap:butt;stroke-linejoin:miter;stroke-opacity:1"
     id="text4157"
     transform="translate(-74.225479,-2.1741291)">
    <path
       d="m 93.629387,12.879737 q 0.569974,0 0.817789,0.247815 0.272596,0.247815 0.272596,0.644318 0,0.644319 -0.396504,1.139948 -0.371722,0.49563 -1.189511,0.520412 -1.982518,0.04956 -3.51897,-0.297378 -1.759486,3.692441 -4.262415,6.145808 -2.478149,2.428585 -4.981078,2.428585 -2.577275,0 -3.84113,-2.99856 -1.263856,-2.998559 -1.263856,-8.103544 0,-4.3615418 0.619537,-7.8309494 0.223034,-1.2886371 0.619537,-1.7347037 0.421285,-0.4708482 1.412545,-0.4708482 1.635578,0 1.635578,1.4125445 0,0.1486889 -0.04956,0.5451926 -0.743445,4.4606669 -0.743445,8.0787642 0,3.791566 0.619537,5.774085 0.644319,1.957737 1.908174,1.957737 1.288637,0 2.800308,-1.784267 1.51167,-1.784266 2.775526,-4.485448 -1.51167,-0.941696 -2.279896,-2.428585 -0.768226,-1.511671 -0.768226,-3.4694082 0,-1.9577372 0.594755,-3.2959372 0.619537,-1.3629816 1.66036,-2.0320816 1.065603,-0.6691 2.35424,-0.6691 1.586015,0 2.50293,1.1399482 0.941696,1.1399482 0.941696,3.1224668 0,2.8498705 -1.239074,6.220153 1.313419,0.223033 2.99856,0.223033 z M 86.318849,7.9977844 q 0,2.4285856 1.561234,3.5933156 0.966478,-2.7755267 0.966478,-4.5845749 0,-1.0408223 -0.272597,-1.5116705 Q 88.301368,4.999225 87.83052,4.999225 q -0.6691,0 -1.090385,0.7930074 -0.421286,0.768226 -0.421286,2.205552 z"
       style="font-style:normal;font-variant:normal;font-weight:normal;font-stretch:normal;font-family:Pacifico;-inkscape-font-specification:Pacifico;fill:#00a6a8;fill-opacity:1"
       id="path4172"
       inkscape:connector-curvature="0" />
  </g>
</svg>
